<mxfile host="app.diagrams.net" modified="2023-08-15T15:38:49.350Z" agent="Mozilla/5.0 (Windows NT 10.0; Win64; x64) AppleWebKit/537.36 (KHTML, like Gecko) Chrome/115.0.0.0 Safari/537.36" version="21.6.8" etag="G9UQTporoTla-Rn-3q4H" type="github">
  <diagram name="Page-1" id="WwMRkgozZL5AypPkiK_P">
    <mxGraphModel>
      <root>
        <mxCell id="0" />
        <mxCell id="1" parent="0" />
      </root>
    </mxGraphModel>
  </diagram>
</mxfile>
